<svg xmlns="http://www.w3.org/2000/svg" width="75" height="57"><path d="M65.418 24.633c-1.238 0-2.473-.238-3.668-.461a36.728 36.728 0 0 0-1.66-.293l-.219-.031.035-.223.063-.426c.035-.265.066-.476.105-.687.035-.176.086-.344.137-.52.023-.082.047-.16.07-.238l.051-.192.195.032c.422.062.844.133 1.262.199.89.14 1.813.289 2.723.406.375.051.75.078 1.129.082 1.707 0 2.382-.695 2.898-2.984.016-.067.11-.79.184-1.371.12-.946.168-1.266.18-1.313l.038-.18h.184a8.795 8.795 0 0 1 1.832.301l.219.055-.055.215c-.078.312-.195.91-.332 1.601-.254 1.305-.57 2.93-.809 3.524-.457 1.144-1.316 1.941-2.421 2.238-.7.18-1.422.274-2.145.266Zm0 0" style="stroke:none;fill-rule:nonzero;fill:#7d9ea7;fill-opacity:1"/><path d="M69.121 16.656a8.428 8.428 0 0 1 1.79.293c-.231.922-.778 4.219-1.13 5.094-.406 1.02-1.183 1.812-2.273 2.105a8.045 8.045 0 0 1-2.09.262c-1.777 0-3.516-.484-5.29-.75.075-.488.11-.797.169-1.101.047-.243.129-.48.203-.75 1.344.207 2.66.437 3.988.605.383.055.77.082 1.157.086 1.851 0 2.593-.844 3.117-3.156.023-.102.34-2.586.36-2.688m-.356-.457-.079.356c-.011.058-.039.28-.18 1.328-.073.562-.163 1.262-.179 1.363-.492 2.176-1.094 2.805-2.683 2.805a8.717 8.717 0 0 1-1.106-.082c-.902-.121-1.781-.258-2.719-.407-.414-.066-.84-.136-1.261-.199l-.387-.062-.106.383a9.301 9.301 0 0 1-.07.238c-.05.183-.101.36-.14.539-.044.219-.07.43-.11.7-.02.128-.039.269-.062.425l-.067.441.438.067c.55.082 1.11.187 1.648.289 1.211.23 2.457.472 3.715.472a8.56 8.56 0 0 0 2.203-.277c1.172-.312 2.086-1.156 2.57-2.367.246-.613.551-2.184.82-3.566.137-.688.25-1.282.329-1.586l.11-.434-.434-.11a8.987 8.987 0 0 0-1.88-.308l-.366-.012Zm0 0" style="stroke:none;fill-rule:nonzero;fill:#1d1d1b;fill-opacity:1"/><path d="M70.176 18.258h-.106c-.058 0-.105 0-.148-.008l-.121-.008-.125-.012-.114-.015-.117-.02-.101-.023c-.04-.008-.078-.016-.121-.027l-.098-.028-.105-.035c-.028-.012-.06-.023-.09-.035-.032-.016-.067-.027-.098-.043-.031-.016-.059-.027-.086-.043a1.05 1.05 0 0 1-.086-.055l-.078-.047a1.141 1.141 0 0 1-.082-.062c-.023-.02-.05-.04-.07-.059-.02-.015-.047-.043-.07-.066l-.008-.012-.055-.055-.055-.07-.015-.023c-.016-.02-.032-.035-.043-.055l-.047-.082-.016-.027-.031-.059-.035-.086-.016-.031c-.008-.02-.012-.04-.02-.059a1.078 1.078 0 0 1-.027-.097l-.012-.036c0-.02-.007-.039-.015-.058a1.136 1.136 0 0 1-.016-.121v-.028c0-.015 0-.035-.008-.05a1.909 1.909 0 0 1-.011-.211v-.23h.273c-.98-.4-1.879-.954-2.289-2.223a2.855 2.855 0 0 1-.129-.63 1.933 1.933 0 0 1 0-.3c.012-.2.055-.395.13-.582.124-.293.32-.559.562-.766l.152-.133.144.137.188.176.05.047.118.101.058.047.09.074.063.043.074.055.055.031.066.04.05.023.06.027.046.016.055.015.043.008h.145l.058-.008c.016 0 .031-.003.047-.007.023 0 .043-.008.066-.016l.051-.016.078-.023.04-.016h.03a.937.937 0 0 0 .544-.261l.02-.02.226-.129.453.16.031.028c.207.18.473.273.746.27h.051l.621.218.035-.102c.028-.074.055-.148.082-.214.028-.067.047-.114.07-.165L71.27 12l.19.078c.071.027.142.059.212.086l.023.012.188.09.047.02.035.046c.191.258.496.406.816.402.047 0 .098 0 .149-.007a.75.75 0 0 0 .293-.114l.011-.004.016-.011c.086-.051.164-.106.238-.172.055-.051.117-.106.172-.16.098-.125.172-.27.207-.426.035-.106.074-.227.133-.356a.296.296 0 0 1 .273-.183c.118 0 .227.07.274.176.02.039.043.082.066.12.09.173.176.333.13.497-.071.238-.138.469-.204.695l-.047.18c-.078.265-.16.554-.246.828-.066.219-.133.414-.2.594a9.435 9.435 0 0 1-.226.578c-.05.113-.11.222-.172.328l-.011.015-.024.04a2.305 2.305 0 0 1-.195.273l-.043.047a2.287 2.287 0 0 1-.258.254 2.374 2.374 0 0 1-.258.183l-.043.028c-.09.05-.187.097-.285.14l-.058.024c-.102.039-.207.07-.309.097-.012.004-.023.004-.035.008a2.681 2.681 0 0 1-.309.055l.461.082.016.172c.035.445-.059.785-.281 1.035-.29.328-.797.488-1.598.516h-.156Zm0 0" style="stroke:none;fill-rule:nonzero;fill:#fff;fill-opacity:1"/><path d="M74.266 11.516a.08.08 0 0 1 .074.05c.078.164.21.356.18.457-.09.301-.168.598-.25.88-.079.28-.16.554-.243.82-.062.203-.125.394-.195.59-.066.19-.14.378-.223.562a2.822 2.822 0 0 1-.16.305l-.027.047a1.96 1.96 0 0 1-.184.25l-.035.043c-.066.074-.14.144-.215.21l-.02.012a1.972 1.972 0 0 1-.234.168l-.039.024c-.082.046-.172.09-.257.125l-.055.023a2.414 2.414 0 0 1-.285.09l-.04.008a2.486 2.486 0 0 1-.296.054h-.035a4.396 4.396 0 0 1-.325.016h-.078l-.176-.008h-.082c-.086-.004-.175-.015-.265-.027l.07.3 1.195.208c.07.898-.414 1.27-1.668 1.312h-.34l-.128-.008-.11-.007-.117-.012-.101-.016-.122-.015-.093-.024c-.035-.004-.07-.015-.106-.023l-.09-.028c-.03-.007-.062-.02-.093-.03l-.082-.032a.575.575 0 0 1-.086-.04l-.078-.038c-.028-.012-.051-.028-.079-.043l-.066-.043c-.023-.02-.047-.035-.066-.055a.868.868 0 0 1-.063-.047c-.02-.02-.039-.039-.058-.062-.024-.02-.036-.035-.055-.051-.016-.023-.035-.047-.05-.07a.726.726 0 0 1-.086-.133c-.016-.028-.028-.043-.04-.067l-.035-.086c-.012-.027-.02-.043-.024-.062a1.623 1.623 0 0 1-.027-.098c-.008-.035-.016-.047-.02-.07-.003-.02-.011-.078-.019-.117 0-.02-.008-.04-.008-.059a1.574 1.574 0 0 1-.011-.191h1.304c-1.414-.516-2.797-.875-3.324-2.52a2.38 2.38 0 0 1-.117-.574 1.598 1.598 0 0 1 0-.273c.008-.172.047-.344.11-.508.112-.266.284-.5.503-.684.067.063.129.117.192.176l.05.047c.043.039.082.074.121.105l.063.051c.031.027.062.055.094.078l.062.047a.846.846 0 0 0 .086.059l.063.039.078.047.058.03.075.032.058.02c.027.008.05.015.078.02l.055.01c.027 0 .055.005.082.005h.11l.077-.008c.016 0 .036-.008.055-.012l.078-.015.063-.02.086-.027.027-.008a1.14 1.14 0 0 0 .664-.324l.121-.063.317.114c.246.21.562.328.886.32h.02l.45.16c-.747 1.469-2.134 1.336-3.47 1.414l.309.094.078.023c.11.028.215.055.316.078.102.02.204.04.301.051l.078.012c.102.012.2.016.301.016.05 0 .102 0 .149-.004h.07c.07-.008.144-.02.215-.036.554-.117 1.156-.394 1.547-.793.336-.347.484-.878.629-1.25.023-.054.042-.105.062-.148.07.024.137.055.203.082l.02.012c.062.027.125.058.187.09a1.23 1.23 0 0 0 1.164.476.966.966 0 0 0 .41-.156c.094-.059.184-.125.266-.2.059-.05.117-.109.18-.171.21-.207.23-.485.39-.852a.075.075 0 0 1 .07-.05m0-.446a.527.527 0 0 0-.472.317c-.063.144-.102.27-.14.382a.903.903 0 0 1-.153.336 2.487 2.487 0 0 1-.352.293l-.023.012-.012.008-.011.004a.466.466 0 0 1-.204.082.792.792 0 0 1-.762-.313l-.058-.074-.086-.047h-.004a4.855 4.855 0 0 0-.199-.094l-.016-.007c-.082-.04-.152-.067-.218-.094l-.399-.164-.176.379c-.023.047-.05.105-.074.172-.015.039-.031.074-.043.12l-.18-.066-.203-.074-.074-.023h-.101a.886.886 0 0 1-.59-.215l-.067-.055-.078-.027-.316-.114-.188-.066-.171.098-.079.043-.035.02-.054.027-.047.046a.725.725 0 0 1-.418.2l-.043.004-.04.015-.027.008-.066.023-.047.012-.05.012-.036.008h-.164l-.043-.012-.031-.008-.047-.02-.04-.019-.054-.035c-.015-.008-.031-.016-.047-.027-.015-.012-.047-.032-.07-.047l-.016-.012-.035-.031-.086-.067-.023-.02-.031-.027-.11-.097-.027-.024-.024-.023-.183-.168-.293-.281-.305.27a2.31 2.31 0 0 0-.617.85 1.96 1.96 0 0 0-.148.65 2.41 2.41 0 0 0 0 .335c.023.23.07.457.14.676.38 1.176 1.137 1.773 2.004 2.184v.199c0 .078 0 .156.012.238 0 .024 0 .043.012.067v.019c0 .043.011.09.02.14 0 .024.01.048.019.075v.027c.007.031.015.07.03.113l.028.075.008.015v.012c.012.035.027.07.043.102.012.027.027.05.04.074l.015.023c.015.028.03.059.054.094a.672.672 0 0 0 .051.07l.008.012.008.008c.02.027.043.058.066.082.024.027.04.047.059.066l.008.012c.03.027.054.055.086.078l.07.059h.008c.03.023.058.047.09.07l.09.055a.646.646 0 0 0 .097.058l.098.051.105.047.102.04c.035.01.074.026.117.038l.11.031.116.028.11.023.129.024c.043.003.078.011.117.015l.137.012.117.012h.508c.879-.032 1.421-.211 1.761-.59.262-.297.371-.692.332-1.203l-.015-.172.05-.016.063-.027c.11-.043.215-.094.313-.152l.043-.028c.097-.058.187-.12.277-.195l.027-.02a2.01 2.01 0 0 0 .258-.258l.008-.007.039-.043a2.77 2.77 0 0 0 .219-.297l.023-.043.008-.016c.066-.105.125-.219.18-.336v-.004l.003-.02a9.577 9.577 0 0 0 .438-1.19c.082-.258.16-.524.246-.836l.055-.192c.062-.223.129-.45.195-.683.07-.235-.047-.477-.144-.66a1.053 1.053 0 0 1-.06-.114.532.532 0 0 0-.472-.305Zm0 0" style="stroke:none;fill-rule:nonzero;fill:#1d1d1b;fill-opacity:1"/><path d="M72.77 12.734h-.04a.832.832 0 0 1-.105-.007l-.043-.008.031-.223-.047.219-.125-.031.063-.215-.078.207a.338.338 0 0 1-.067-.028l-.043-.02a.702.702 0 0 1-.078-.042l-.047-.031-.058-.043c-.02-.016-.031-.028-.047-.04l-.05-.05-.04-.043-.047-.055-.035-.047-.02-.027.172-.14-.18.128-.015-.023-.031-.05-.035-.063-.024-.055c-.011-.02-.02-.043-.031-.067-.012-.023-.016-.035-.023-.054-.008-.02-.016-.047-.028-.07-.008-.024-.011-.04-.015-.055-.008-.016-.016-.047-.024-.067l-.015-.066a.454.454 0 0 1-.016-.07l-.016-.063c0-.031-.008-.058-.015-.09l-.008-.043c0-.047-.012-.09-.016-.136a80.48 80.48 0 0 1-.09-.965c0 .078-.011.152-.015.226-.008.141-.016.278-.02.418 0 .075 0 .153-.011.23-.008.075-.008.157-.02.231a1.338 1.338 0 0 1-.234.672 1 1 0 0 1-.184.18 1.135 1.135 0 0 1-.543.18H70.312a1.09 1.09 0 0 1-.25-.028h-.027a.876.876 0 0 1-.215-.074l-.03-.012a1.42 1.42 0 0 1-.18-.117l-.028-.023a1.331 1.331 0 0 1-.148-.149l-.02-.023a1.668 1.668 0 0 1-.117-.172l-.012-.02a2.287 2.287 0 0 1-.094-.199l-.007-.02c-.028-.07-.047-.132-.067-.195.004.227-.066.446-.191.633a.923.923 0 0 1-.672.356h-.035a.148.148 0 0 1-.059 0h-.055l-.082-.004c-.03 0-.066-.012-.101-.016l-.078-.02c-.035-.007-.067-.02-.102-.027-.035-.012-.055-.02-.082-.027-.023-.008-.066-.028-.101-.04h-.012l-.063-.03-.097-.051-.012-.008-.059-.031c-.03-.02-.054-.04-.082-.059l-.023-.016-.047-.035c-.027-.027-.055-.05-.082-.082l-.008-.008c-.015-.011-.027-.027-.039-.039a.854.854 0 0 1-.101-.16 4.919 4.919 0 0 1-.313-1.023 5.228 5.228 0 0 1-.09-1.074c0-.094.008-.192.016-.31l.008-.073c.007-.086.015-.172.027-.254v-.031c.016-.079.031-.16.055-.247 0-.02.008-.035.011-.05.02-.078.04-.145.063-.203 0-.02.008-.028.012-.04a1.53 1.53 0 0 1 .086-.199l.023-.043a1.64 1.64 0 0 1 .117-.183c.04-.055.086-.102.133-.149l.023-.023c.043-.035.086-.07.133-.102l.04-.023c.054-.035.113-.063.171-.086l.031-.008a.746.746 0 0 1 .16-.043 1.013 1.013 0 0 1 .234-.023c.095 0 .185.007.274.027l.059.012h.02c.074.015.14.031.203.05l.101.036c.067.023.133.05.207.082l.028.011.066.032c.078.039.152.074.227.117l.101-.035.082-.028.11-.039.238-.09.117-.043.078-.027.11-.035.078-.02c.039-.011.078-.02.117-.027h.015l.055-.012c.05-.007.098-.011.149-.015h.039c.07 0 .136.008.203.02.398.085.73.382.945.577l.082.075.117-.036.075-.019.152-.047.266-.086.195-.058.023-.008c.067-.02.133-.035.196-.051l.043-.008h.015l.14-.023.071-.004h.145l.062.004c.059.011.113.027.168.047h.008l.027.015c.278.13.48.414.602.633a2.713 2.713 0 0 1 .312.84 4.356 4.356 0 0 1 .04 1.246c-.02.164-.051.328-.09.492-.02.078-.043.156-.07.238-.16.493-.638 1.254-1.15 1.313a1.794 1.794 0 0 1-.148.008Zm0 0" style="stroke:none;fill-rule:nonzero;fill:#fff;fill-opacity:1"/><path d="M70.355 7.781c.051 0 .102.004.149.016.453.094.828.543 1.023.676.078-.02.157-.04.235-.063l.234-.07.098-.031.168-.055.191-.059.02-.004c.062-.02.125-.035.183-.046l.055-.012c.043-.008.082-.016.117-.02h.219a.52.52 0 0 1 .133.04c.218.124.398.316.511.542.067.125.13.254.176.387.047.129.082.258.11.387a3.94 3.94 0 0 1-.114 1.86c-.152.464-.59 1.124-.965 1.167-.039.004-.078.008-.117.008h-.121l-.039-.008a.184.184 0 0 1-.066-.016l-.043-.015-.059-.02-.039-.023-.05-.027-.04-.024-.047-.035c-.011-.012-.023-.02-.035-.031l-.043-.04-.031-.035c-.016-.015-.027-.03-.04-.046l-.026-.04-.02-.027-.016-.023-.027-.043a.239.239 0 0 1-.027-.055c-.012-.02-.02-.031-.028-.047-.004-.015-.015-.039-.023-.058-.008-.02-.016-.032-.02-.047a.296.296 0 0 1-.023-.063c-.008-.02-.012-.035-.02-.05-.003-.016-.011-.047-.02-.067l-.01-.05c-.009-.024-.013-.052-.02-.075l-.008-.047a.56.56 0 0 1-.016-.086l-.008-.039c0-.043-.011-.082-.015-.12-.063-.661-.117-1.321-.184-1.981l-.262-.016c-.03.426-.074.848-.101 1.27-.008.14-.016.28-.02.421 0 .075 0 .149-.007.223-.008.074-.012.149-.02.223-.012.199-.078.394-.191.558a.629.629 0 0 1-.137.133.929.929 0 0 1-.434.149h-.125a.91.91 0 0 1-.207-.024h-.02a.716.716 0 0 1-.175-.058l-.02-.008a.917.917 0 0 1-.144-.094l-.024-.016a.69.69 0 0 1-.117-.12l-.015-.02a.855.855 0 0 1-.098-.145c-.004-.008-.012-.015-.016-.023a2.205 2.205 0 0 1-.086-.188 2.201 2.201 0 0 1-.062-.191v-.016a2.866 2.866 0 0 1-.043-.21c-.078-.43-.086-.876-.121-1.313-.02-.278-.035-.555-.055-.836l-.355.027c.015.344.015.692.027 1.035.004.258.023.516.055.77.011.086.023.172.039.254.117.633-.09 1.074-.637 1.136h-.117a.19.19 0 0 1-.067 0l-.085-.011-.07-.016-.087-.023-.074-.024-.086-.035-.07-.031-.082-.047c-.031-.016-.043-.023-.063-.035-.02-.012-.05-.035-.078-.055-.023-.015-.035-.023-.05-.035-.016-.012-.044-.043-.067-.066-.02-.02-.023-.024-.031-.036a.496.496 0 0 1-.07-.105 4.803 4.803 0 0 1-.383-2c0-.105.007-.203.011-.297v-.07c.012-.082.02-.164.032-.239v-.027c.011-.082.03-.16.046-.238l.016-.055c.016-.062.035-.12.055-.18l.008-.03c.023-.063.05-.122.078-.18l.023-.036c.024-.043.05-.082.078-.12l.02-.032c.031-.039.07-.082.105-.117l.028-.024a1 1 0 0 1 .101-.078l.031-.02c.043-.023.086-.046.137-.066l.024-.007a.791.791 0 0 1 .129-.036l.039-.003c.05-.008.105-.012.156-.012.082 0 .16.008.238.02.024 0 .047.011.07.015.059.016.118.031.184.05l.09.032c.062.02.129.047.195.074l.086.04c.094.046.192.097.293.155.07-.019.133-.042.2-.066l.073-.023.25-.094.11-.043.113-.04.074-.026.102-.032.07-.02c.035-.011.07-.019.106-.027l.058-.011c.043-.004.082-.008.125-.008h.032m0-.45h-.059c-.059 0-.117.008-.164.016l-.067.016h-.011c-.043.008-.086.016-.133.027l-.078.024c-.043.011-.082.027-.117.039l-.082.027-.118.047-.03.008-.083.031-.117.047-.113.043h-.008l-.024.008-.043.015h-.011c-.047-.027-.098-.05-.153-.078l-.07-.031-.027-.012c-.078-.035-.153-.062-.223-.09l-.105-.035a1.853 1.853 0 0 0-.223-.058h-.02c-.023 0-.046-.012-.07-.016a1.551 1.551 0 0 0-.523-.012l-.051.008h-.024a1.644 1.644 0 0 0-.187.047l-.043.016a1.45 1.45 0 0 0-.207.101l-.04.027c-.058.036-.108.075-.16.118l-.034.035c-.055.05-.11.11-.157.172l-.023.039c-.04.054-.074.113-.11.172v.007l-.023.04a3.953 3.953 0 0 0-.098.226c0 .012-.007.024-.011.035a3.45 3.45 0 0 0-.067.215v.012l-.015.055c-.02.093-.04.18-.055.269v.027a4.173 4.173 0 0 0-.031.266l-.008.082a5.411 5.411 0 0 0 .078 1.438c.07.367.184.726.328 1.074a.89.89 0 0 0 .133.207c.02.023.035.043.059.062a.844.844 0 0 0 .105.098l.059.047.011.008h.008c.024.02.055.043.094.07l.066.035.016.008a.59.59 0 0 0 .11.059l.07.035h.015l.11.043.086.03.12.032.09.02.122.02.093.007h.184c.328-.023.629-.191.828-.453.024-.035.047-.07.07-.11.02.032.043.06.067.09l.023.032a1.53 1.53 0 0 0 .207.195c.067.059.145.105.223.144l.031.016c.086.035.172.066.262.086l.035.008c.094.02.191.027.29.027h.167c.234-.015.457-.094.649-.223.09-.062.171-.14.238-.226.05-.078.094-.16.129-.25l.015.047a.766.766 0 0 1 .024.055v.003c.011.028.023.051.035.079.012.023.02.039.027.058l.043.074.035.059.02.027.004.008.023.031.04.055.054.066.047.051.062.063c.02.015.036.031.055.047.024.015.047.035.07.05l.059.04c.023.015.05.027.078.042h.008l.059.028.085.035h.012l.059.02.097.019.067.012c.039.008.078.008.117.011h.055c.062 0 .12-.004.18-.011.671-.082 1.183-1.028 1.331-1.473.028-.082.051-.164.075-.25.039-.172.074-.344.093-.52.02-.175.032-.351.032-.53a4.04 4.04 0 0 0-.075-.782 2.637 2.637 0 0 0-.125-.457 3.66 3.66 0 0 0-.207-.453 1.746 1.746 0 0 0-.71-.727l-.024-.011h-.008a.827.827 0 0 0-.215-.055c-.023-.004-.046-.008-.07-.008h-.258a1.266 1.266 0 0 0-.156.024h-.016l-.05.011c-.067.016-.141.031-.211.051h-.02c-.066.023-.133.043-.203.066l-.168.051-.078.024-.02.007-.144.047-.02.004-.054.016c-.235-.215-.59-.527-1.043-.621a.96.96 0 0 0-.235-.028ZM51.086 6.875c8.797 8.871 8.797 23.254 0 32.125-8.793 8.867-23.055 8.867-31.852 0-8.793-8.871-8.793-23.254 0-32.125 8.797-8.871 23.059-8.871 31.852 0Zm0 0" style="stroke:none;fill-rule:nonzero;fill:#1d1d1b;fill-opacity:1"/><path d="M35.16.445c12.317 0 22.3 10.07 22.3 22.492s-9.98 22.489-22.3 22.489-22.3-10.067-22.3-22.489c0-12.421 9.984-22.492 22.3-22.492m0-.445C23.516.016 13.777 8.922 12.625 20.61c-1.148 11.683 6.664 22.35 18.078 24.675 11.414 2.324 22.719-4.45 26.152-15.672 3.434-11.218-2.117-23.242-12.84-27.812A22.41 22.41 0 0 0 35.16 0Zm0 0" style="stroke:none;fill-rule:nonzero;fill:#1d1d1b;fill-opacity:1"/><path d="M9.582 25.191a8.276 8.276 0 0 1-2.145-.27c-1.105-.296-1.964-1.089-2.425-2.237-.235-.59-.551-2.22-.809-3.524a37.93 37.93 0 0 0-.328-1.598l-.055-.214.215-.055a8.627 8.627 0 0 1 1.836-.305h.184l.039.18c.011.055.062.441.176 1.312.078.586.171 1.317.187 1.383.516 2.282 1.191 2.98 2.898 2.98a8.506 8.506 0 0 0 1.133-.085 85.815 85.815 0 0 0 2.719-.406l1.258-.2.195-.027.05.188.071.242c.051.175.102.343.137.52.043.21.07.421.11.687.015.125.034.265.058.425l.035.22-.219.034c-.55.082-1.113.188-1.656.29-1.191.222-2.426.46-3.664.46Zm0 0" style="stroke:none;fill-rule:nonzero;fill:#7d9ea7;fill-opacity:1"/><path d="M5.879 17.215c.023.101.34 2.586.355 2.687.532 2.313 1.27 3.16 3.121 3.16a9.531 9.531 0 0 0 1.157-.082c1.328-.171 2.644-.402 3.988-.609.074.27.156.508.203.75.063.305.094.613.168 1.102-1.773.265-3.516.75-5.289.75a8.045 8.045 0 0 1-2.09-.262c-1.094-.293-1.867-1.082-2.273-2.106-.352-.87-.899-4.175-1.13-5.09a8.399 8.399 0 0 1 1.79-.3m.355-.457-.367.012a8.774 8.774 0 0 0-1.883.308l-.43.106.11.433c.074.309.191.899.324 1.586.27 1.387.578 2.953.82 3.567.485 1.214 1.399 2.054 2.575 2.367a8.363 8.363 0 0 0 2.199.277c1.262 0 2.504-.238 3.711-.465.539-.101 1.098-.21 1.645-.293l.437-.062-.066-.442c-.024-.16-.043-.3-.059-.425-.04-.27-.07-.48-.113-.7a5.478 5.478 0 0 0-.14-.539c-.02-.078-.048-.156-.067-.238l-.106-.383-.386.059c-.426.066-.852.133-1.262.199a71.81 71.81 0 0 1-2.723.406 8.71 8.71 0 0 1-1.101.082c-1.59 0-2.192-.629-2.684-2.8-.02-.102-.11-.801-.184-1.364a42.354 42.354 0 0 0-.18-1.328l-.077-.36Zm0 0" style="stroke:none;fill-rule:nonzero;fill:#1d1d1b;fill-opacity:1"/><path d="M4.75 18.816h-.156c-.801-.027-1.313-.191-1.602-.515-.222-.25-.312-.59-.277-1.035l.015-.176.461-.078a2.55 2.55 0 0 1-.3-.055c-.016 0-.028-.004-.043-.008a2.83 2.83 0 0 1-.309-.097l-.059-.024a3.945 3.945 0 0 1-.289-.14l-.039-.028a2.046 2.046 0 0 1-.257-.183l-.024-.016a2.703 2.703 0 0 1-.234-.238l-.043-.047a2.217 2.217 0 0 1-.2-.274l-.03-.054a2.874 2.874 0 0 1-.173-.325 11.673 11.673 0 0 1-.43-1.176c-.077-.257-.152-.519-.241-.831l-.055-.196c-.067-.222-.13-.445-.195-.68-.047-.16.039-.32.128-.492l.047-.093a.33.33 0 0 1 .301-.18.334.334 0 0 1 .285.203c.047.117.082.223.117.317.036.156.106.3.207.421.06.059.118.114.172.16.07.067.149.126.23.172l.028.016c.09.059.188.098.293.113.05.004.098.008.149.008.32.004.625-.148.816-.406l.035-.04.047-.023c.059-.03.125-.062.188-.09l.015-.007c.078-.035.145-.067.219-.094l.191-.074.086.187c.024.051.047.102.07.16.024.059.055.141.083.22l.035.097.617-.219h.062c.27.008.532-.09.739-.266l.03-.027.454-.16.227.125.02.023a.96.96 0 0 0 .542.262h.024l.046.016.075.023.054.016a.409.409 0 0 0 .067.015l.047.008.058.008h.145l.039-.008c.02 0 .039-.008.058-.015L7.363 13l.059-.027.05-.024.067-.039.055-.031.078-.055s.043-.031.055-.043c.015-.011.062-.05.09-.074l.062-.05.117-.102.055-.047c.058-.051.117-.11.183-.172l.145-.14.152.136c.242.207.438.469.563.766.074.187.117.382.129.582.007.101.007.199 0 .3-.02.215-.063.422-.13.625-.405 1.266-1.304 1.829-2.288 2.227h.273v.227c0 .07 0 .14-.012.21-.003.016-.003.036-.007.051v.028c-.008.043-.012.086-.02.12-.008.036-.012.04-.016.06L7 17.57a.712.712 0 0 1-.027.098c-.012.035-.016.043-.024.062l-.015.032a.332.332 0 0 1-.036.086l-.03.058-.016.028a.32.32 0 0 1-.047.078l-.04.058-.011.012a1.815 1.815 0 0 1-.063.078c-.02.024-.03.04-.05.055l-.008.012a1.296 1.296 0 0 1-.074.07l-.063.05c-.02.02-.059.048-.086.067a.884.884 0 0 1-.078.05c-.027.016-.059.036-.09.052l-.082.043-.098.043-.093.035-.106.035-.097.027c-.036.012-.075.02-.118.031l-.101.02-.121.02c-.035 0-.07.011-.11.015-.035.004-.082.012-.128.012l-.118.012h-.254Zm0 0" style="stroke:none;fill-rule:nonzero;fill:#fff;fill-opacity:1"/><path d="M.727 12.102c.043 0 .078.023.093.062.14.348.168.613.371.813.059.062.118.12.18.171.082.075.172.141.266.196l.027.015a.972.972 0 0 0 .383.145c.058.008.117.008.176.012.386 0 .754-.18.988-.489l.187-.093.02-.008c.066-.031.133-.059.2-.086.023.047.042.098.062.148.148.375.297.903.632 1.25.387.399.993.68 1.547.797.07.016.145.024.215.031h.067c.05 0 .101.008.152.008.098 0 .2-.008.3-.02l.075-.007c.102-.016.2-.031.3-.055.106-.02.212-.047.317-.078l.078-.023c.102-.028.207-.059.313-.094-1.344-.074-2.723.058-3.473-1.414l.45-.156h.019c.324.003.64-.11.887-.325l.32-.109.117.062c.18.176.414.29.664.32l.031.009c.028.011.055.023.086.03l.059.016.078.02.059.012.074.008h.113c.012 0 .05 0 .078-.008l.059-.012a.52.52 0 0 0 .074-.02c.02-.003.04-.011.059-.02a.601.601 0 0 0 .074-.03l.062-.028.079-.047.062-.039.086-.058.062-.047.094-.078.063-.051.117-.105.055-.047c.058-.055.117-.121.187-.18.219.188.39.422.504.688.066.16.11.332.117.507.008.09.008.18 0 .27-.015.2-.055.39-.117.578-.527 1.645-1.91 2-3.324 2.516h1.304c0 .066 0 .128-.011.191 0 .02-.008.04-.008.059 0 .039-.012.082-.02.12-.007.04-.011.044-.02.067-.003.024-.015.067-.023.098-.011.031-.02.043-.027.066-.012.024-.023.059-.035.086l-.035.063c-.012.02-.028.05-.047.078a.762.762 0 0 1-.043.058c-.016.02-.031.047-.05.067a.36.36 0 0 1-.056.054.415.415 0 0 1-.058.059c-.024.02-.04.035-.063.05l-.066.052a1.796 1.796 0 0 1-.066.043l-.079.046c-.027.016-.05.024-.074.036-.027.015-.058.027-.09.043l-.082.027c-.03.015-.062.023-.093.035l-.09.023c-.035.012-.07.02-.106.028l-.093.02-.114.019-.101.015-.121.012-.11.008h-.472c-1.254-.043-1.739-.414-1.668-1.312l1.195-.207.07-.301c-.09.011-.176.023-.265.031h-.082c-.059 0-.118 0-.176.008h-.078a4.51 4.51 0 0 1-.325-.02h-.035a3.619 3.619 0 0 1-.297-.05l-.039-.012a1.856 1.856 0 0 1-.285-.09l-.05-.02a3.25 3.25 0 0 1-.262-.129l-.04-.023a2.51 2.51 0 0 1-.234-.164l-.02-.016a2.186 2.186 0 0 1-.214-.21l-.035-.044a2.634 2.634 0 0 1-.184-.242l-.027-.05a3.18 3.18 0 0 1-.16-.301 10.01 10.01 0 0 1-.223-.567 18.977 18.977 0 0 1-.434-1.41c-.074-.281-.16-.574-.25-.875-.027-.098.086-.27.164-.426a.095.095 0 0 1 .09-.054m0-.446a.539.539 0 0 0-.484.309l-.047.086c-.098.183-.219.414-.144.664.074.25.132.46.195.68l.054.195c.086.312.165.574.243.836.07.223.136.422.203.605.078.211.152.407.238.598.055.121.117.242.184.36l.008.011.027.043c.066.106.137.203.215.297l.039.043.008.012c.082.09.168.175.261.254l.028.023c.086.07.18.137.277.195h.008l.039.024c.098.058.203.11.312.156l.063.023.05.02-.015.168c-.04.512.07.906.336 1.203.336.379.879.563 1.758.59h.355l.149-.008.117-.008.129-.027.117-.016.129-.023.113-.024.117-.027.106-.031.12-.04c.032-.011.067-.023.099-.038.03-.016.074-.032.109-.047l.094-.047c.035-.02.066-.04.097-.059.032-.023.063-.039.09-.058.027-.02.063-.043.09-.07l.008-.004.074-.06c.027-.026.055-.05.078-.077l.012-.012c.02-.023.043-.043.062-.066.02-.024.043-.055.067-.082v-.008l.008-.012c.02-.023.035-.047.05-.07a.736.736 0 0 0 .055-.094l.016-.023c.011-.024.027-.051.039-.075.011-.023.031-.074.043-.101l.004-.012.007-.015.028-.075c.008-.027.023-.082.031-.12v-.028c.008-.027.016-.05.02-.074.011-.051.02-.098.023-.141v-.02c0-.023.008-.043.008-.066.012-.078.015-.156.015-.23v-.192c.864-.41 1.625-1.008 2-2.183.075-.22.122-.446.145-.676a2.41 2.41 0 0 0 0-.336 2.004 2.004 0 0 0-.148-.652 2.254 2.254 0 0 0-.618-.848l-.304-.27-.293.278-.184.172-.023.023-.028.023-.105.098-.035.027-.024.02-.086.066-.035.032-.015.011-.07.047-.048.028-.054.035-.04.02-.046.015-.032.012-.039.011-.027.004h-.14l-.036-.008-.054-.011-.043-.012-.067-.023-.027-.008-.04-.016-.046-.008a.697.697 0 0 1-.414-.195l-.047-.047-.055-.031-.035-.016-.078-.043-.148-.097-.184.066-.32.11-.078.027-.063.054a.87.87 0 0 1-.594.215h-.097l-.075.028-.21.074-.168.058a1.416 1.416 0 0 0-.043-.117c-.028-.07-.051-.12-.075-.176l-.175-.378-.383.152c-.07.027-.14.058-.223.094l-.016.007c-.066.032-.136.063-.199.098l-.09.043-.062.078a.792.792 0 0 1-.645.32c-.039 0-.078 0-.117-.007a.537.537 0 0 1-.203-.078l-.023-.016-.024-.012c-.066-.039-.129-.09-.191-.14-.047-.043-.098-.094-.16-.153a.903.903 0 0 1-.153-.336 3.837 3.837 0 0 0-.117-.328.538.538 0 0 0-.5-.34Zm0 0" style="stroke:none;fill-rule:nonzero;fill:#1d1d1b;fill-opacity:1"/><path d="M2.227 13.29c-.051 0-.098 0-.149-.009-.508-.062-.984-.824-1.148-1.316a4.38 4.38 0 0 1-.157-.73 3.948 3.948 0 0 1 .04-1.246c.027-.141.066-.286.117-.423.05-.144.117-.285.191-.418a1.52 1.52 0 0 1 .61-.636.808.808 0 0 1 .195-.059h.269c.047 0 .09.012.14.024h.017l.043.007c.062.016.128.032.195.051h.02l.199.063.257.082.16.047.075.023.117.031.082-.07c.219-.195.55-.496.945-.578a.862.862 0 0 1 .2-.02h.043c.05 0 .097.008.148.016l.055.008h.015c.04.008.078.015.117.027l.075.02.117.039.078.023.117.043.238.09.118.043.078.027.101.035.227-.12.07-.032.024-.012c.074-.03.14-.058.207-.082l.097-.035c.067-.02.133-.035.207-.05l.02-.008.058-.012a1.493 1.493 0 0 1 .461-.008c.012 0 .028.004.04.008a.816.816 0 0 1 .167.043l.032.008c.058.023.117.05.172.082l.03.023c.048.031.09.063.134.102l.03.027a1.2 1.2 0 0 1 .134.148c.008.008.011.016.02.028.034.047.066.101.093.152l.027.047c.032.062.063.129.086.2l.012.027c.023.07.043.136.059.203l.015.058c.024.09.04.172.055.254v.024c.012.086.023.168.031.257l.004.075c.012.113.016.21.02.308.007.36-.024.719-.094 1.074a4.919 4.919 0 0 1-.313 1.024.585.585 0 0 1-.097.156c-.012.016-.028.031-.04.043l-.011.008a.522.522 0 0 1-.082.078.156.156 0 0 1-.047.04l-.012.007a1.066 1.066 0 0 1-.093.066l-.055.032-.012.007c-.035.02-.066.036-.098.051-.035.016-.043.02-.066.027h-.012a1.062 1.062 0 0 1-.097.043l-.078.024c-.04.016-.075.023-.106.031l-.082.016c-.035.008-.066.015-.102.02l-.082.003h-.152a.937.937 0 0 1-.672-.355 1.116 1.116 0 0 1-.191-.633c-.02.062-.04.125-.063.187l-.011.024a1.257 1.257 0 0 1-.09.195l-.012.028a1.708 1.708 0 0 1-.121.171l-.02.024a.89.89 0 0 1-.148.148l-.02.02a.94.94 0 0 1-.187.117l-.024.012c-.07.035-.144.058-.222.078H4.94a1.354 1.354 0 0 1-.25.023H4.543a1.074 1.074 0 0 1-.54-.183.802.802 0 0 1-.183-.18 1.38 1.38 0 0 1-.238-.672 4.059 4.059 0 0 1-.02-.234c-.003-.078-.007-.153-.007-.227 0-.14-.012-.277-.02-.418 0-.074-.012-.148-.015-.226-.032.32-.06.644-.09.964 0 .047-.012.09-.02.137l-.004.043c0 .031-.011.063-.02.09a.415.415 0 0 1-.011.055c-.004.027-.012.054-.016.078l-.015.055-.024.078a.082.082 0 0 1-.015.043l-.028.082-.023.05a.355.355 0 0 1-.031.07c-.012.024-.016.036-.028.055l-.035.063c-.008.02-.02.035-.031.05l-.04.063-.034.047c-.016.016-.032.035-.047.055-.016.015-.028.027-.04.043l-.054.05a.428.428 0 0 1-.043.04c-.02.015-.039.027-.058.043a.221.221 0 0 1-.051.03c-.02.016-.043.028-.067.04l-.05.027-.07.024h-.016c-.012.007-.028.011-.043.015l-.079.02h-.015l-.043.008c-.035 0-.07.004-.106.004h-.039Zm0 0" style="stroke:none;fill-rule:nonzero;fill:#fff;fill-opacity:1"/><path d="M4.645 8.344h.035c.039 0 .082.004.12.008l.063.011c.035.008.067.016.106.028l.066.02.102.03.078.028.11.039.109.043.125.047.128.047.07.023c.067.023.134.047.2.066.102-.058.2-.109.297-.156l.086-.039c.066-.027.129-.055.191-.078.032-.008.063-.02.09-.027.066-.02.125-.036.184-.051.023 0 .05-.012.074-.016a1.58 1.58 0 0 1 .234-.02c.055 0 .106.005.16.012l.04.004c.042.008.085.02.125.035l.027.008c.047.02.094.04.137.067l.027.02c.035.023.07.05.105.077l.024.024c.039.035.074.074.105.117l.024.031a.81.81 0 0 1 .074.125l.023.04c.028.058.055.116.079.175 0 .012.007.023.011.035.02.055.035.117.055.176l.012.055c.02.074.035.152.046.238v.027c.012.078.024.157.032.242 0 .024 0 .047.004.07.007.095.015.192.02.294a4.988 4.988 0 0 1-.388 2.004.694.694 0 0 1-.066.105l-.035.035a.974.974 0 0 1-.066.063c-.016.015-.036.027-.051.039l-.078.055-.063.035c-.027.015-.055.03-.082.043-.031.015-.047.023-.07.03-.02.013-.059.024-.086.036l-.074.024c-.028.007-.059.019-.086.023l-.07.016c-.028.007-.06.011-.087.015h-.183c-.547-.062-.754-.504-.637-1.137.016-.085.027-.171.04-.253.03-.254.05-.512.054-.77.012-.344.012-.691.027-1.035l-.355-.031c-.02.277-.035.554-.055.836-.035.437-.043.882-.121 1.312a2.867 2.867 0 0 1-.043.211v.016c-.02.066-.04.129-.063.191-.003.008-.007.012-.007.02-.024.058-.051.113-.078.168 0 .007-.008.015-.016.023a.723.723 0 0 1-.098.145l-.015.023a.83.83 0 0 1-.118.117l-.023.016a.679.679 0 0 1-.14.094l-.024.007a.716.716 0 0 1-.176.059h-.02a.91.91 0 0 1-.206.023h-.122a.861.861 0 0 1-.433-.148.629.629 0 0 1-.137-.133 1.145 1.145 0 0 1-.195-.562 1.917 1.917 0 0 1-.016-.215c0-.074-.008-.153-.011-.227 0-.14-.012-.281-.02-.422-.027-.422-.066-.843-.098-1.27l-.265.012a162.66 162.66 0 0 1-.184 1.985.644.644 0 0 1-.015.125c0 .015-.004.027-.008.043 0 .027-.008.055-.012.082l-.012.05c0 .024-.011.048-.015.071l-.016.05a.33.33 0 0 1-.02.067c0 .02-.011.035-.015.05-.008.017-.016.044-.024.063-.007.024-.015.036-.02.051l-.026.059-.024.043-.031.058c-.008.012-.016.028-.027.043-.008.012-.008.016-.012.02l-.02.027-.031.04-.035.046-.035.035c-.012.016-.028.028-.04.04a.274.274 0 0 1-.038.03.107.107 0 0 1-.047.036c-.012.011-.024.02-.035.027a.357.357 0 0 1-.055.027l-.04.02c-.019.012-.038.016-.058.023l-.043.016-.062.012-.043.008c-.028 0-.055 0-.082.007h-.035c-.04 0-.079-.004-.118-.007-.375-.047-.812-.704-.964-1.168a3.683 3.683 0 0 1-.176-1.16c0-.235.023-.47.066-.7.024-.133.059-.261.106-.386.05-.133.109-.266.175-.387.114-.23.293-.418.512-.547a.548.548 0 0 1 .137-.04H2.176c.039.005.082.013.12.02l.052.008c.058.016.117.031.183.051l.024.004.187.059.168.054.098.031.234.07c.078.024.156.044.238.06.184-.133.567-.579 1.02-.673a.673.673 0 0 1 .152-.015m0-.445c-.082 0-.16.007-.238.023-.45.094-.805.41-1.043.621l-.055-.016-.015-.003-.149-.043-.02-.008-.077-.024-.168-.054c-.07-.024-.137-.043-.2-.063l-.023-.008a5.65 5.65 0 0 0-.21-.054l-.052-.008h-.015c-.055-.012-.11-.02-.157-.028l-.082-.003h-.175c-.024 0-.047.003-.07.003-.071.012-.141.032-.212.06l-.03.015c-.306.164-.552.418-.712.726a2.787 2.787 0 0 0-.207.453 3.05 3.05 0 0 0-.129.457 4.37 4.37 0 0 0-.07.782c0 .175.008.355.027.53a4.856 4.856 0 0 0 .168.77c.149.442.664 1.387 1.332 1.47.059.007.118.01.176.01h.059c.03 0 .074 0 .12-.007l.06-.012h.011c.024 0 .059-.011.094-.023.023-.008.043-.012.062-.02h.008c.031-.011.063-.023.09-.035l.059-.027h.003l.083-.047.054-.035a.337.337 0 0 0 .07-.055l.055-.047a.916.916 0 0 0 .063-.058c.02-.024.035-.035.047-.051.015-.02.039-.043.054-.066l.043-.055.02-.031v-.008l.023-.031.035-.06c.016-.023.028-.046.04-.07l.03-.062.036-.074v-.008l.02-.055.019-.043c.039.086.09.172.148.25.067.086.145.16.235.223.191.133.418.211.648.227H4.7c.097 0 .195-.012.292-.028l.035-.008c.086-.019.176-.05.258-.09l.035-.015a.978.978 0 0 0 .22-.137l.03-.027a.936.936 0 0 0 .176-.176l.027-.031c.02-.027.043-.059.067-.086.02.035.043.074.07.11.2.261.5.425.828.449h.184l.094-.004.117-.02.094-.02.117-.03c.035-.012.062-.02.09-.032.03-.012.074-.027.113-.047h.012L7.633 13l.105-.059.016-.007.066-.04c.035-.019.067-.042.098-.066h.008l.008-.008.062-.047c.035-.03.07-.062.102-.097a.915.915 0 0 0 .191-.274 5.332 5.332 0 0 0 .422-2.191c0-.102-.008-.2-.016-.316 0-.028 0-.055-.008-.082a3.728 3.728 0 0 0-.03-.262V9.52a3.665 3.665 0 0 0-.055-.27l-.016-.055v-.011a1.665 1.665 0 0 0-.066-.211l-.012-.04a3.953 3.953 0 0 0-.098-.226l-.023-.039V8.66a1.22 1.22 0 0 0-.106-.168l-.027-.043a1.324 1.324 0 0 0-.156-.176l-.036-.027a.902.902 0 0 0-.152-.121l-.047-.031a1.256 1.256 0 0 0-.207-.098l-.043-.016a3.213 3.213 0 0 0-.183-.05h-.008l-.05-.008a1.806 1.806 0 0 0-.255-.02h-.004c-.101 0-.203.012-.304.028-.024 0-.047.011-.07.015h-.016a2.139 2.139 0 0 0-.227.059l-.105.035c-.07.027-.145.055-.223.09l-.023.012-.075.035-.152.074h-.012l-.043-.016-.023-.007h-.008l-.11-.043-.12-.047-.082-.032-.028-.007-.12-.043-.083-.032-.117-.035-.082-.027a2.016 2.016 0 0 0-.133-.027h-.012c-.023 0-.043-.008-.066-.012a1.165 1.165 0 0 0-.164-.016h-.059Zm0 0" style="stroke:none;fill-rule:nonzero;fill:#1d1d1b;fill-opacity:1"/><path d="M51.89 9.93c7.09 7.152 7.09 18.746 0 25.898-7.093 7.152-18.59 7.152-25.68 0-7.089-7.152-7.089-18.746 0-25.898 7.09-7.153 18.587-7.153 25.68 0Zm0 0" style="stroke:none;fill-rule:nonzero;fill:#7d9ea7;fill-opacity:1"/><path d="M39.05 4.79c9.907 0 17.938 8.097 17.938 18.089 0 9.992-8.031 18.09-17.937 18.09s-17.938-8.098-17.938-18.09c0-9.992 8.032-18.09 17.938-18.09m0-.445c-8.77 0-16.313 6.246-18.024 14.922-1.71 8.672 2.891 17.355 10.993 20.738 8.101 3.383 17.44.523 22.312-6.828 4.871-7.352 3.914-17.153-2.285-23.403a18.193 18.193 0 0 0-12.996-5.43Zm0 0" style="stroke:none;fill-rule:nonzero;fill:#1d1d1b;fill-opacity:1"/><path d="M41.59 36.066h-.317L41 36.06l-.117-.008-.262-.016-.273-.023h-.043L40.207 36l-.137-.016-.28-.035-.06-.008-.156-.023h-.027a9.765 9.765 0 0 1-.48-.09l-.09-.016-.067-.011-.11-.024h-.023c-.183-.039-.355-.086-.523-.129l-.063-.015-.09-.02-.07-.02c-.281-.077-.539-.156-.781-.238a10.58 10.58 0 0 1-.547-.199 13.185 13.185 0 0 1-4.16-2.543c-.16-.144-.3-.281-.426-.41l-.023-.023c-1.336-1.383-2.676-3.598-2.54-4.692a.902.902 0 0 1 .196-.48l.023-.02.016-.015.02-.016c.03-.027.062-.055.097-.078l.02-.012.054-.031.016-.008h.008c.047-.023.094-.039.14-.055l.028-.011h.015l.06-.008c.05-.012.105-.016.155-.02h.356c.058.004.12.016.176.024h.03l.075.012.168.035.082.02.059.015-.035.223.054-.22h.02l.078.024.074.02c.082.023.164.047.25.078.082.027.172.058.262.09l.078.027.184.07.09.035.179.075.078.031.25.11c.156.066.32.132.488.195l.157.058c.125.051.254.098.383.14l.117.044.054.02c.157.05.317.105.473.156l.082.027c.148.043.309.094.523.152l.11.032.105.027c.149.039.297.074.446.11l.093.023.07.015h.032c.18.04.367.078.555.121l.082.016c.207.035.422.07.644.102l.051.007.11.012c.187.027.355.043.507.059h.059l.117.011h.035c.242.02.473.032.695.043h.012c.156 0 .3.004.45.004H40.022c.137 0 .27-.007.41-.02h.055l.125-.01h.04c.292-.024.538-.056.769-.09.168-.024.34-.052.543-.09l.09-.016c.164-.031.328-.067.492-.106l.098-.023c.175-.043.328-.082.472-.121l.035-.008.442-.129.07-.023c.145-.043.285-.09.422-.137l.086-.027c.137-.047.273-.094.402-.145l.051-.02.355-.132.06-.024.355-.14.43-.172.331-.13.02-.007c.117-.047.215-.086.316-.121l.055-.02c.098-.039.195-.07.285-.101l.035-.012.059-.015.16-.047.066-.024h.012l.055-.012.027-.007.137-.028.043-.011.043-.008h.031a1.6 1.6 0 0 1 .191-.024h.329c.023 0 .05.004.074.008h.02c.015 0 .027 0 .042.008h.02l.039.012h.012l.03.008h.013l.054.015.078.031.078.04.04.023.039.02h.011l.008.007.04.028.03.023c.02.012.04.027.059.043.441.387.656 1.125.605 2.078-.066 1.18-.527 2.55-1.242 3.672-.11.172-.226.34-.343.492a6.91 6.91 0 0 1-.782.875c-.902.844-2.05 1.418-3.414 1.703l-.207.043-.183.028-.188.03-.238.024-.117.012-.094.012c-.063.008-.117.011-.184.02h-.023l-.145.007h-.277c-.074 0-.145.008-.219.008Zm0 0" style="stroke:none;fill-rule:nonzero;fill:#601200;fill-opacity:1"/><path d="M30.5 26.95h.227c.058 0 .117.015.183.023h.027l.067.015.074.012h.04l.046.012.082.02.05.011h.02l.098.023.07.024.239.074c.082.027.164.055.25.086l.078.027.18.07.085.032.18.074.074.031c.086.036.168.07.25.11.16.066.328.133.496.199l.157.059c.129.046.257.097.386.144l.102.035.066.024c.16.054.32.105.485.16l.082.023c.172.055.355.106.527.157l.055.015.05.016c.036.008.075.015.118.027.148.04.3.074.449.113l.074.02.067.016.058.011c.184.04.371.078.563.117l.082.016c.215.043.43.078.652.106l.04.007h.01c.036 0 .075.008.118.012.172.024.344.043.52.059h.054l.106.011h.05c.235.02.473.032.711.04h.02c.152 0 .3.007.45.007h.495l.149-.008c.148 0 .297-.011.445-.023h.055l.129-.012h.039a11.246 11.246 0 0 0 1.332-.183l.093-.016c.172-.035.336-.07.5-.105l.098-.024c.164-.039.324-.082.484-.12l.032-.009c.156-.043.304-.086.449-.133l.074-.02c.145-.046.285-.093.426-.14l.086-.027.406-.145.05-.02.364-.136.059-.023.363-.14.102-.04.328-.133c.12-.047.222-.09.328-.129l.031-.011.3-.121.06-.02c.093-.035.187-.07.277-.098l.043-.015.07-.02.05-.015.044-.012c.035-.012.066-.024.101-.031h.008l.078-.02c.043-.008.09-.02.133-.027l.035-.008.043-.012h.024c.062-.008.12-.015.18-.02h.28c.028 0 .055.008.087.012h.05l.043.012.028.008h.008l.043.016h.015l.047.015.016.008h.007l.043.023.024.012.039.024.012.003c.015.012.03.024.047.04.015.011.042.027.062.043.406.359.574 1.05.531 1.894-.062 1.086-.476 2.414-1.21 3.566a5.765 5.765 0 0 1-.333.477 6.189 6.189 0 0 1-.754.844c-.91.851-2.05 1.386-3.312 1.648a9.02 9.02 0 0 1-.566.098c-.122.02-.239.027-.348.039-.09.008-.18.02-.27.027h-.027c-.07.008-.14.008-.215.012l-.125.008c-.094 0-.187.008-.285.008h-.367l-.29-.004-.163-.012-.149-.008h-.062c-.086 0-.176-.015-.266-.023h-.039c-.055 0-.105-.012-.156-.02a5.198 5.198 0 0 1-.356-.043l-.215-.027-.035-.008a19.389 19.389 0 0 1-.465-.086l-.09-.016-.171-.035-.032-.007c-.167-.036-.335-.079-.503-.118-.051-.015-.102-.023-.153-.039l-.066-.015a13.454 13.454 0 0 1-.77-.239 22.205 22.205 0 0 1-.543-.195 13.051 13.051 0 0 1-4.09-2.46 10.132 10.132 0 0 1-.414-.403l-.027-.024c-1.328-1.375-2.601-3.511-2.473-4.507a.632.632 0 0 1 .141-.36l.016-.012c0-.003.015-.011.02-.015a.484.484 0 0 1 .085-.07h.008l.035-.024h.008a.855.855 0 0 1 .129-.047c.008 0 .015-.008.027-.012.012 0 .028 0 .04-.003.046-.012.093-.016.14-.02h.07m0-.45h-.117c-.055 0-.11.013-.164.024l-.074.012-.024.008h-.008l-.03.012c-.055.015-.11.035-.16.058-.013.004-.024.012-.036.016l-.063.035-.039.023-.007.012a.52.52 0 0 0-.102.082l-.02.016a.475.475 0 0 0-.066.058c-.14.172-.227.38-.246.598-.148 1.195 1.23 3.465 2.594 4.875l.027.023c.129.137.27.274.434.422a13.52 13.52 0 0 0 4.793 2.766c.246.086.507.164.793.238l.05.012h.02c.031.012.066.02.098.027l.058.012c.164.043.34.09.524.129l.03.008.118.023.066.012.059.012h.035c.149.03.313.062.473.09l.039.003c.05.012.105.02.16.024l.059.011.289.036.07.007.059.004.109.016h.039l.277.023h.063l.098.004h.105l.121.008h.688c.074 0 .148 0 .222-.008h.074l.13-.008h.078l.14-.007h.031c.067 0 .13-.012.196-.016l.086-.012.109-.011c.082-.008.168-.016.254-.028l.172-.023v.008l.16-.032.144-.023v-.008l.118-.027c1.406-.293 2.59-.883 3.523-1.754.293-.277.563-.582.809-.902.117-.16.234-.333.355-.508.73-1.153 1.211-2.567 1.274-3.782.058-1.023-.184-1.824-.68-2.257-.024-.02-.05-.04-.078-.059l-.012-.008-.008-.008-.047-.035-.027-.02-.05-.027h-.009l-.039-.02-.05-.026h-.008l-.031-.016c-.028-.008-.047-.02-.07-.027l-.036-.012-.05-.016h-.012.003l-.046-.015H48.3l-.055-.012-.031-.008h-.055l-.086-.012h-.383a1.77 1.77 0 0 0-.195.024h-.035l-.04.008h-.01l-.04.007-.152.036h-.02l-.074.043h-.008l-.07.02-.035.01-.032.009h-.027l-.043.011-.023.008-.051.016h-.012l-.035.011c-.09.028-.184.063-.289.102l-.059.02c-.101.039-.203.078-.308.12l-.02.005h-.011l-.336.144-.086.035-.246.098-.067.027-.035.012-.355.14-.032.012-.027.012c-.117.043-.234.09-.355.133l-.024.012-.027.007c-.117.047-.25.09-.395.141l-.086.031c-.144.047-.281.09-.418.133l-.039.012-.031.012c-.152.046-.297.09-.434.125l-.023.007h-.012c-.14.04-.297.078-.472.117l-.028.008-.066.016c-.16.039-.324.074-.485.105l-.054.008-.035.008a13.206 13.206 0 0 1-1.293.18h-.215c-.133.008-.266.015-.403.02h-.652c-.144 0-.293 0-.434-.009h-.015c-.227-.007-.45-.02-.692-.039h-.05l-.102-.011h-.055a9.827 9.827 0 0 1-.503-.055c-.02 0-.04 0-.063-.008l-.047-.004h-.047a21.927 21.927 0 0 1-.636-.101l-.063-.016h-.016c-.183-.031-.367-.07-.546-.11l-.043-.011h-.016l-.04-.008-.023-.004-.027-.008-.047-.011a10.21 10.21 0 0 1-.437-.11l-.11-.027h-.02l-.034-.012h-.016l-.035-.008c-.211-.058-.371-.105-.516-.152l-.078-.023c-.16-.051-.316-.106-.472-.157l-.043-.015-.024-.008-.05-.016-.051-.02c-.13-.046-.258-.093-.38-.14l-.046-.015-.106-.043c-.183-.07-.34-.133-.484-.196l-.25-.105-.05-.024-.028-.011-.184-.075-.094-.035-.21-.07-.055-.023c-.102-.036-.188-.063-.266-.09h-.008a3.9 3.9 0 0 0-.254-.078l-.054-.016-.024-.004-.074-.023-.023-.008h-.04l-.042-.008-.086-.02-.043-.011h-.074l-.063-.012h-.02l-.054-.008h-.043c-.059-.012-.13-.02-.195-.027h-.27Zm0 0" style="stroke:none;fill-rule:nonzero;fill:#1d1d1b;fill-opacity:1"/><path d="M31.094 24.512c-3.367 0-6.102-2.754-6.102-6.153 0-3.398 2.735-6.156 6.102-6.156 3.37 0 6.101 2.758 6.101 6.156 0 3.399-2.73 6.153-6.101 6.153Zm0 0" style="stroke:none;fill-rule:nonzero;fill:#fbe7c2;fill-opacity:1"/><path d="M31.094 12.426c2.699 0 5.047 1.851 5.703 4.488a5.943 5.943 0 0 1-2.926 6.672 5.846 5.846 0 0 1-7.129-1.238 5.972 5.972 0 0 1-.543-7.274 5.906 5.906 0 0 1 4.895-2.648m0-.446c-3.328 0-6.086 2.602-6.309 5.954-.223 3.351 2.172 6.3 5.473 6.746 3.3.445 6.375-1.77 7.035-5.059.656-3.293-1.328-6.535-4.54-7.418a6.275 6.275 0 0 0-1.66-.223Zm0 0" style="stroke:none;fill-rule:nonzero;fill:#1d1d1b;fill-opacity:1"/><path d="M47.64 24.797c-3.37 0-6.1-2.754-6.1-6.156 0-3.399 2.73-6.153 6.1-6.153 3.368 0 6.102 2.754 6.102 6.153 0 3.402-2.734 6.156-6.101 6.156Zm0 0" style="stroke:none;fill-rule:nonzero;fill:#fbe7c2;fill-opacity:1"/><path d="M47.64 12.71c2.762 0 5.153 1.942 5.743 4.665.59 2.723-.778 5.492-3.29 6.656a5.847 5.847 0 0 1-7.148-1.816 5.981 5.981 0 0 1-.57-6.219 5.883 5.883 0 0 1 5.266-3.285m0-.445c-3.332 0-6.09 2.601-6.313 5.953-.223 3.351 2.172 6.3 5.473 6.746 3.3.445 6.379-1.77 7.035-5.059.66-3.293-1.324-6.539-4.54-7.418a6.246 6.246 0 0 0-1.655-.222ZM28.633 29.16c-.317-.695-.5-1.375-.43-1.937a1.52 1.52 0 0 1 .473-.953l.012-.008c.066-.063.132-.114.207-.16.03-.016.062-.032.093-.051l.067-.031.02-.008c.05-.024.105-.043.16-.059l.062-.023.047-.012a1.12 1.12 0 0 1 .12-.02c.04-.007.083-.015.126-.02h.539l.191.024h.028l.035.008.07.012h.016l.07.015h.02l.09-.55-.094-.02-.082-.015-.086-.012a1.703 1.703 0 0 0-.192-.024l-.144-.011h-.285l-.13.008-.113.011c-.046 0-.097.012-.144.02-.055.008-.11.015-.164.027l-.152.047c-.063.02-.118.043-.184.066l-.145.067a3.332 3.332 0 0 0-.12.07 1.865 1.865 0 0 0-.282.207 1.24 1.24 0 0 0-.191.188 2.066 2.066 0 0 0-.489 1.125c-.09.73.157 1.574.547 2.386.153-.109.293-.234.434-.367Zm0 0" style="stroke:none;fill-rule:nonzero;fill:#1d1d1b;fill-opacity:1"/><path d="M48.582 27.227c-.02-.02-.043-.032-.062-.047l-.047-.035-.012-.008-.055-.028-.043-.02h-.011l-.012-.007-.047-.02h-.016l-.043-.011h-.011l-.028-.012-.043-.012h-.05c-.028 0-.055-.007-.086-.011h-.278c-.058 0-.117.011-.18.023h-.023l-.043.008-.039.008-.129.03-.078.02h-.012l-.097.028-.047.015-.05.016-.067.02-.043.011-.282.098-.054.023c-.098.036-.2.075-.301.118l-.031.011-.328.133-.332.129-.102.043-.36.14-.058.02c-.117.047-.238.094-.363.14l-.055.02c-.129.047-.266.094-.402.14l-.086.032c-.14.047-.281.094-.43.137l-.07.023c-.149.043-.297.09-.45.13l-.035.011a8.636 8.636 0 0 1-.48.117l-.098.024c-.164.039-.332.074-.5.105-.031.008-.062.012-.093.02a13.809 13.809 0 0 1-1.336.184h-.04l-.124.01h-.06c-.148.013-.292.017-.44.024-.051 0-.102.008-.149.008h-.203c-.254.004-.504.004-.754 0h-.023a21.427 21.427 0 0 1-.707-.039h-.051l-.106-.012-.058-.004c-.172-.02-.344-.035-.516-.058-.039 0-.078-.008-.117-.016h-.012l-.039-.004a15.189 15.189 0 0 1-.652-.105l-.086-.016a23.44 23.44 0 0 1-.559-.12l-.058-.013-.067-.015-.074-.02c-.152-.035-.3-.07-.45-.113l-.116-.027-.051-.016-.055-.012c-.18-.05-.355-.101-.527-.156l-.082-.023c-.164-.055-.324-.11-.485-.16l-.066-.024-.102-.039-.386-.14-.157-.06c-.167-.066-.335-.132-.496-.198a4.826 4.826 0 0 0-.25-.11l-.074-.031c-.062-.024-.12-.05-.18-.07l-.09-.036-.175-.07-.078-.027c-.086-.031-.168-.063-.254-.09-.078-.027-.16-.05-.235-.074l-.074-.02-.093-.023h-.02l-.055-.016-.078-.02-.047-.007h-.039L31 27.035l-.066-.012h-.028c-.062-.011-.125-.02-.183-.027H30.426a1.737 1.737 0 0 0-.14.02c-.013 0-.028 0-.04.007l-.027.008a.855.855 0 0 0-.13.047h-.007l-.035.024h-.008a.484.484 0 0 0-.086.07l-.023.02c-.004.003-.008 0-.012.007a.665.665 0 0 0-.145.36c-.12 1 1.149 3.132 2.477 4.507l.023.024c.133.14.274.27.418.402a6.3 6.3 0 0 1 7.027-.805 6.398 6.398 0 0 1 2.824 2.977c.08-.008.161-.016.24-.027.128-.02.241-.04.355-.059a7.017 7.017 0 0 0-2.223-2.82 6.34 6.34 0 0 1 6.664 1.433c.117-.156.227-.312.328-.476.735-1.153 1.153-2.477 1.211-3.567.04-.87-.129-1.57-.535-1.921Zm0 0" style="stroke:none;fill-rule:nonzero;fill:#601200;fill-opacity:1"/><path d="M41.594 36.055h-.328l-.262-.008c-.035 0-.07-.004-.11-.008l-.269-.016c-.09 0-.18-.015-.27-.023h-.039l-.105-.012-.129-.015-.285-.035-.063-.008-.156-.024h-.027c-.168-.027-.328-.058-.473-.086h-.035l-.059-.011-.066-.016-.105-.02-.024-.007c-.184-.04-.355-.086-.523-.125l-.063-.016-.09-.023-.066-.016c-.285-.082-.54-.16-.785-.238a33.91 33.91 0 0 1-.547-.2 13.217 13.217 0 0 1-4.172-2.535l-.191-.175.195-.16a6.54 6.54 0 0 1 4.242-1.579c.191 0 .387.012.574.028a6.545 6.545 0 0 1 5.309 3.652l.074-.008.063-.008a6.742 6.742 0 0 0-2.032-2.468l-.324-.239.379-.144a6.449 6.449 0 0 1 2.86-.39 6.518 6.518 0 0 1 4.011 1.85l.16.165-.117.152a7.225 7.225 0 0 1-.781.875c-.903.844-2.05 1.414-3.418 1.703l-.207.043-.13.024-.226.023h-.02a2.46 2.46 0 0 1-.237.023l-.106.012-.09.012a3.05 3.05 0 0 1-.187.02h-.024l-.14.007-.285.012-.215.008Zm0 0" style="stroke:none;fill-rule:nonzero;fill:#e46b36;fill-opacity:1"/><path d="M36.79 30.918a6.322 6.322 0 0 1 3.504 1.063 6.389 6.389 0 0 1 2.245 2.632c.078-.011.16-.015.238-.027.13-.02.246-.04.356-.059a6.98 6.98 0 0 0-2.223-2.816 6.209 6.209 0 0 1 2.766-.379 6.37 6.37 0 0 1 3.898 1.813c-.226.304-.48.585-.758.843-.91.852-2.05 1.387-3.312 1.649a9.02 9.02 0 0 1-.566.097c-.118.016-.239.028-.348.04-.09.007-.18.019-.27.027h-.023c-.074 0-.145.008-.215.011l-.125.004c-.098 0-.191.012-.285.012H41.3c-.098 0-.192 0-.29-.008l-.163-.008-.149-.007h-.058c-.09 0-.18-.016-.266-.024h-.043c-.055 0-.105-.015-.156-.02a11.022 11.022 0 0 1-.356-.042c-.07-.008-.14-.02-.215-.032h-.035c-.152-.023-.308-.054-.465-.082l-.09-.02c-.054-.01-.117-.019-.167-.034l-.035-.004c-.168-.04-.336-.082-.504-.121l-.153-.035-.066-.02c-.258-.07-.516-.148-.77-.238-.18-.063-.36-.13-.543-.196a13.033 13.033 0 0 1-4.09-2.496c.301-.257.626-.488.97-.683a6.247 6.247 0 0 1 3.128-.836m0-.445a6.761 6.761 0 0 0-4.379 1.625l-.394.328.379.347a13.41 13.41 0 0 0 4.238 2.563 12.17 12.17 0 0 0 1.351.441l.047.012h.02l.098.023.058.016c.164.043.344.086.524.129l.03.004.118.023.066.016.063.008.031.008c.149.03.313.058.473.09h.039l.16.023.059.008.289.035.074.008.055.007.109.012h.043l.273.024h.27c.039 0 .078.003.117.007.09 0 .184 0 .274.004h.414c.074 0 .148 0 .222-.008h.074l.13-.003h.078l.14-.008h.031c.067 0 .13-.012.196-.02l.086-.011.109-.008c.082-.008.168-.016.254-.032l.187-.027v.012l.145-.031.152-.024v-.008l.11-.023c1.406-.293 2.59-.887 3.523-1.758.293-.277.563-.578.805-.902l.238-.309-.273-.277-.012-.012a6.806 6.806 0 0 0-4.156-1.93 7.616 7.616 0 0 0-.594-.023 6.63 6.63 0 0 0-2.367.43l-.446.168a6.663 6.663 0 0 0-2.926-.96 5.96 5.96 0 0 0-.59-.029ZM32.703 12.633a5.917 5.917 0 0 0-4.016 3.781l3.508 1.945-3.433 2.141a5.914 5.914 0 0 0 3.941 3.578c2.563-.7 4.34-3.047 4.34-5.723 0-2.675-1.777-5.023-4.34-5.722ZM49.273 12.898a5.903 5.903 0 0 0-4.011 3.782l3.504 1.941-3.434 2.14a5.91 5.91 0 0 0 3.941 3.583c2.563-.703 4.34-3.047 4.34-5.723 0-2.68-1.777-5.023-4.34-5.723Zm0 0" style="stroke:none;fill-rule:nonzero;fill:#1d1d1b;fill-opacity:1"/><path d="M55.39 51.09a.217.217 0 0 1-.195-.121c-.304-.598-.656-1.266-.996-1.91-.625-1.176-1.219-2.29-1.469-2.946-.664-1.703-1.304-2.222-2.753-2.222-.25 0-.528.015-.848.047-.61.062-1.215.12-1.84.175l-.887.082h-.02a.225.225 0 0 1-.222-.222v-1.72c0-.112.086-.21.195-.222.297-.035.594-.07.872-.101.62-.078 1.21-.149 1.808-.207.332-.032.653-.047.945-.047 2.325 0 3.684 1.008 4.688 3.476.215.532.863 1.79 1.55 3.13l.419.812a.22.22 0 0 1-.028.246c-.289.328-.547.68-.77 1.05-.081.165-.16.34-.241.56a.228.228 0 0 1-.196.136Zm0 0" style="stroke:none;fill-rule:nonzero;fill:#7d9ea7;fill-opacity:1"/><path d="M49.98 41.898c2.25 0 3.52.97 4.485 3.34.265.653 1.164 2.371 1.976 3.961-.296.34-.566.707-.796 1.094a7.533 7.533 0 0 0-.254.574c-.856-1.691-2.07-3.832-2.457-4.828-.688-1.77-1.395-2.363-2.957-2.363-.266 0-.555.015-.875.047-.891.09-1.786.168-2.72.257v-1.726c.934-.11 1.802-.223 2.673-.309.324-.03.633-.047.925-.047m0-.445c-.3 0-.628.016-.968.05-.598.06-1.184.13-1.805.204l-.875.102a.448.448 0 0 0-.395.445v1.723c0 .246.2.445.446.445h.039l.875-.082c.637-.059 1.238-.121 1.851-.176.317-.031.59-.047.829-.047 1.347 0 1.918.469 2.546 2.082.258.668.852 1.793 1.48 2.973.34.637.688 1.3.993 1.898a.448.448 0 0 0 .395.239h.023a.452.452 0 0 0 .39-.282c.083-.21.157-.382.235-.535.219-.36.465-.695.738-1.008a.452.452 0 0 0 .059-.496l-.418-.816c-.652-1.27-1.328-2.586-1.54-3.106-.526-1.293-1.132-2.164-1.905-2.742-.774-.582-1.762-.875-2.993-.875Zm0 0" style="stroke:none;fill-rule:nonzero;fill:#1d1d1b;fill-opacity:1"/><path d="M62.395 55.055a.2.2 0 0 1-.13-.04c-.253-.183-.495-.359-.73-.535-.492-.359-.953-.703-1.426-1.02a5.782 5.782 0 0 0-.683-.37c-.649-.317-1.383-.676-1.469-1.45a.23.23 0 0 1 .04-.152l.062-.086c.257-.379.449-.882.59-1.535l.023-.058a.19.19 0 0 1 0-.067l.016-.062c.046-.332.062-.672.035-1.008-.004-.156-.012-.32-.008-.477 0-.023.004-.05.012-.074l.02-.05c.116-.301.21-.61.273-.926.195-1.051 1.19-1.997 2.37-2.247.169-.035.344-.054.52-.054.8 0 1.524.406 2.14 1.203.329.422.77 1.055.821 1.695.238 2.809-.523 5.176-2.32 7.242a.21.21 0 0 1-.156.07Zm0 0" style="stroke:none;fill-rule:nonzero;fill:#fbe7c2;fill-opacity:1"/><path d="M61.914 45.066c.816 0 1.465.465 1.969 1.118.355.457.73 1.03.773 1.578.219 2.61-.437 4.972-2.265 7.078-.793-.578-1.465-1.09-2.16-1.563-.739-.496-1.958-.746-2.055-1.656l.062-.09c.305-.492.516-1.039.625-1.613l.055-.078-.027-.047.011-.07c.094-.493.028-1.012.032-1.524.132-.328.23-.668.304-1.011.18-.993 1.157-1.852 2.203-2.07.153-.032.313-.052.473-.052m0-.445c-.191 0-.379.024-.566.063-1.266.265-2.336 1.285-2.547 2.421a5.264 5.264 0 0 1-.262.887l-.02.055a.385.385 0 0 0-.027.148c0 .164 0 .328.008.489.023.32.016.64-.031.957l-.008.027-.008.035c-.004.02-.004.043-.008.063-.004.02-.011.039-.015.058-.137.625-.32 1.098-.559 1.457l-.027.04-.032.046a.429.429 0 0 0-.078.301c.094.898.922 1.3 1.59 1.625.227.105.446.227.656.36.47.316.93.656 1.422 1.015.235.172.473.348.73.535a.441.441 0 0 0 .595-.07c1.836-2.113 2.613-4.535 2.375-7.399-.059-.703-.524-1.375-.868-1.816-.664-.855-1.441-1.29-2.316-1.29Zm0 0" style="stroke:none;fill-rule:nonzero;fill:#1d1d1b;fill-opacity:1"/><path d="M59.32 56.777c-.75 0-1.57-.351-2.511-1.074-.43-.332-.653-.7-.664-1.098-.012-.714.66-1.37 1.32-1.925.183-.149.375-.282.582-.403.066-.039.129-.078.18-.117l.136-.09 3.918 3.153-.246.168c-.176.12-.355.257-.523.39-.633.485-1.285.989-2.192.989Zm0 0" style="stroke:none;fill-rule:nonzero;fill:#fbe7c2;fill-opacity:1"/><path d="m58.352 52.355 3.558 2.864c-.805.55-1.512 1.336-2.59 1.336-.633 0-1.394-.27-2.375-1.024-1.133-.863-.425-1.758.66-2.672.239-.183.489-.351.747-.504m.023-.55-.266.18-.175.113a4.316 4.316 0 0 0-.61.418c-.699.586-1.418 1.297-1.398 2.101.011.469.265.899.754 1.27.976.75 1.843 1.113 2.64 1.113.985 0 1.7-.547 2.328-1.031.176-.137.34-.266.512-.383l.496-.34-.472-.375-3.563-2.867-.25-.2Zm0 0" style="stroke:none;fill-rule:nonzero;fill:#1d1d1b;fill-opacity:1"/><path d="M56.074 54.48a.212.212 0 0 1-.133-.046c-.27-.207-1.222-1.88-1.156-2.239a7.386 7.386 0 0 1 .66-2.008c.242-.406.52-.789.828-1.144.118-.137.243-.27.375-.395a.21.21 0 0 1 .149-.058h.035a.2.2 0 0 1 .156.12c.082.157.149.325.2.497.023.066.046.137.074.207.14-.598.234-1.176.355-1.777.086-.496.176-1.008.293-1.555.16-.754.79-1.316 1.555-1.387l.078-.008c.648-.062 1.05-.101 1.152-.101h.063a.223.223 0 0 1 .168.219.23.23 0 0 1-.168.218 1.936 1.936 0 0 0-1.293.922l-.035.043c-.575.575-.82 1.16-.805 1.457.016.387.043.746.066 1.059.055.687.094 1.23.028 1.75v.031a4.488 4.488 0 0 1-1.813 2.563c-.281.199-.406.699-.52 1.144-.03.121-.058.227-.085.328a.228.228 0 0 1-.227.16Zm0 0" style="stroke:none;fill-rule:nonzero;fill:#e46b36;fill-opacity:1"/><path d="M60.688 44.805h.011a2.157 2.157 0 0 0-1.43 1.023c-.64.645-.886 1.277-.87 1.629.054 1.2.19 2.027.093 2.77a4.257 4.257 0 0 1-1.722 2.441c-.43.305-.54 1.062-.696 1.594-.234-.188-1.117-1.782-1.074-2.032a7.278 7.278 0 0 1 .645-1.94c.23-.388.5-.755.796-1.095.11-.133.23-.261.356-.379.168.309.226.715.52 1.262.374-1.34.5-2.531.804-3.953a1.54 1.54 0 0 1 1.356-1.215c.546-.055 1.109-.11 1.21-.11m0-.445c-.105 0-.44.032-1.183.106l-.07.004a1.98 1.98 0 0 0-1.746 1.562c-.122.551-.208 1.063-.297 1.563-.063.355-.125.695-.192 1.043l-.011-.024a.446.446 0 0 0-.313-.226c-.023-.004-.05-.004-.074-.004a.444.444 0 0 0-.297.117c-.137.133-.27.274-.39.418-.325.367-.61.766-.856 1.188-.094.175-.18.37-.274.609a7.811 7.811 0 0 0-.414 1.453c-.02.121-.058.332.477 1.328.187.344.535.953.762 1.13a.451.451 0 0 0 .27.093.402.402 0 0 0 .136-.024.435.435 0 0 0 .285-.296c.031-.11.063-.22.09-.336.097-.387.219-.868.433-1.02a4.676 4.676 0 0 0 1.895-2.684l.012-.062c.07-.54.027-1.121-.024-1.79-.023-.312-.05-.667-.066-1.05-.012-.21.18-.726.742-1.293a.326.326 0 0 0 .063-.082c.253-.43.671-.726 1.156-.824a.447.447 0 0 0 .344-.434.447.447 0 0 0-.461-.445Zm0 0" style="stroke:none;fill-rule:nonzero;fill:#1d1d1b;fill-opacity:1"/><path d="M56.082 54.48a.226.226 0 0 1-.227-.195.23.23 0 0 1 .047-.168l.047-.058a.235.235 0 0 1 .293-.047.228.228 0 0 1 .09.281.28.28 0 0 1-.246.195Zm0 0" style="stroke:none;fill-rule:nonzero;fill:#e46b36;fill-opacity:1"/><path d="M56.121 54.2c-.016.038-.027.062-.039.062h-.008l.047-.063m0-.445a.44.44 0 0 0-.34.164l-.02.027-.03.032a.45.45 0 0 0-.094.336.436.436 0 0 0 .168.3c.082.063.18.094.277.094a.474.474 0 0 0 .45-.332.448.448 0 0 0-.41-.621Zm0 0" style="stroke:none;fill-rule:nonzero;fill:#1d1d1b;fill-opacity:1"/><path d="M56.074 54.48a.19.19 0 0 1-.101-.027.222.222 0 0 1-.11-.258c.028-.097.055-.203.082-.312.133-.52.282-1.106.696-1.399a4.037 4.037 0 0 0 1.636-2.324 7.024 7.024 0 0 0 .215-2.039c-.008-.367.028-.73.106-1.09.086-.465.25-.91.484-1.324.34-.582.91-.988 1.566-1.125h.051c.102 0 .192.07.215.168a.223.223 0 0 1-.11.254c-1.027.547-1.53 1.453-1.64 2.941 0 .075-.008.157-.008.254 0 .153 0 .309.008.465.027.367.012.738-.043 1.106l-.016.066c-.007.047-.02.09-.027.133-.152.707-.371 1.261-.66 1.687l-.063.09c-.105.156-.214.309-.34.48-.355.477-.75.95-1.128 1.403-.2.238-.399.476-.59.715l-.047.058a.237.237 0 0 1-.176.078Zm0 0" style="stroke:none;fill-rule:nonzero;fill:#fbe7c2;fill-opacity:1"/><path d="M60.7 44.805c-1.255.668-1.657 1.816-1.755 3.125-.008.09-.008.18-.011.27 0 .51.062 1.03-.032 1.523l-.011.07c-.012.039-.02.082-.028.125a4.752 4.752 0 0 1-.625 1.613l-.062.09c-.11.156-.223.313-.336.461-.543.727-1.145 1.41-1.719 2.117l-.047.059c.156-.531.266-1.29.696-1.594a4.242 4.242 0 0 0 1.718-2.437 7.36 7.36 0 0 0 .223-2.106 4.604 4.604 0 0 1 .098-1.035 4.12 4.12 0 0 1 .457-1.258 2.155 2.155 0 0 1 1.433-1.023m0-.446a.426.426 0 0 0-.101.012 2.613 2.613 0 0 0-1.707 1.227 4.439 4.439 0 0 0-.512 1.394 4.817 4.817 0 0 0-.11 1.137 6.879 6.879 0 0 1-.206 1.976 3.83 3.83 0 0 1-1.551 2.196c-.48.34-.649.996-.782 1.527-.027.106-.054.211-.082.305a.444.444 0 0 0 .77.406l.02-.031.023-.028c.195-.238.398-.476.594-.714.379-.457.773-.926 1.136-1.414a14.2 14.2 0 0 0 .344-.477l.024-.035.039-.055c.308-.453.535-1.031.695-1.77l.027-.132v-.028c0-.015.008-.03.008-.046.063-.38.078-.77.05-1.153 0-.16-.01-.304-.007-.453 0-.098 0-.172.008-.238.101-1.406.57-2.258 1.52-2.766a.446.446 0 0 0-.207-.836Zm0 0" style="stroke:none;fill-rule:nonzero;fill:#1d1d1b;fill-opacity:1"/><path d="M13.77 50.7c-.336-2.825 1.234-6.47 3.117-7.235-4.551 4.87-3.856 9.297 2.218 12.8-2.636-.44-5.035-3.035-5.335-5.566Zm6.972 3.609c-.832 1.32-1.539 1.558-2.762.937-4.144-2.101-4.894-7.555-1.492-10.785.485-.461.852-.387 1.25.094-.402.675-.66 1.351-.215 2.105.25-.945.223-2.105 1.551-2.117.375 0 .754.508 1.016.7-.567.421-1.168.632-1.29 1.007-.39 1.21 1.032.836 1.423 1.414-.582.996-1.356.426-2.133.383.305.34.797.453.996.758.223.351.187.87.234 1.14l-1.457.903.133.207c1.117-.477 1.492-.434 2.344.265.879.727 1.047 1.965.402 2.989Zm0 0" style="stroke:none;fill-rule:nonzero;fill:#000;fill-opacity:1"/><path d="M23.75 48.047c-.414 0-.875-.02-1.422-.067a159.16 159.16 0 0 1-2.836-.476c-.754-.129-1.469-.254-1.535-.262l-.195-.023v-.2c.023-.355.097-.706.222-1.042.098-.266.168-.547.2-.829l.02-.28.265.081c.71.215 2.547.715 4.363.715 2 0 3.234-.598 3.664-1.777.035-.09.078-.176.129-.258.02-.027.035-.059.05-.086l.071-.129 2.008.238-.04.23a3.763 3.763 0 0 0-.019.169 1.555 1.555 0 0 1-.074.355c-.96 2.688-2.238 3.637-4.879 3.637Zm0 0" style="stroke:none;fill-rule:nonzero;fill:#7d9ea7;fill-opacity:1"/><path d="m26.875 43.656 1.629.188a3.405 3.405 0 0 1-.082.492c-.977 2.727-2.277 3.488-4.672 3.488-.43 0-.895-.023-1.398-.066-.196-.016-4.188-.711-4.364-.73 0-.598.387-1.27.422-1.864 1.137.348 2.84.73 4.43.73 1.742 0 3.336-.46 3.87-1.925.048-.11.102-.211.165-.313m-.246-.476-.14.265-.048.075a2.105 2.105 0 0 0-.148.296c-.395 1.082-1.555 1.633-3.453 1.633-1.79 0-3.606-.496-4.3-.71l-.532-.16-.04.558a3.29 3.29 0 0 1-.187.773c-.133.356-.215.73-.238 1.113v.395l.39.05c.075.009.813.137 1.528.259 1.918.328 2.738.464 2.855.476.547.047 1.016.07 1.434.07 2.723 0 4.098-1.027 5.09-3.785.043-.133.07-.27.082-.41.008-.055.012-.105.02-.156l.078-.461-.461-.055-1.63-.191-.296-.031Zm0 0" style="stroke:none;fill-rule:nonzero;fill:#1d1d1b;fill-opacity:1"/><path d="M19.09 55.797c-.356 0-.738-.113-1.211-.352-2.024-1.027-3.371-2.883-3.688-5.093-.324-2.243.457-4.45 2.145-6.055.262-.246.508-.367.754-.367.285 0 .547.152.82.476.059.074.067.18.02.258a2.862 2.862 0 0 0-.399.957c.18-.664.516-1.297 1.54-1.305.355 0 .667.297.917.536.075.074.149.14.23.207.055.043.09.109.09.18 0 .07-.035.136-.09.179-.198.148-.405.27-.585.379-.309.187-.57.348-.625.516-.067.203-.074.355-.024.457.078.148.325.218.578.292.305.09.649.188.836.47.051.07.051.163.008.238-.27.464-.625.695-1.09.695a2.092 2.092 0 0 1-.27-.024c.087.067.161.149.22.239.195.304.222.695.242.98.008.094.012.18.023.242a.219.219 0 0 1-.101.227l-.688.426a1.8 1.8 0 0 1 .383-.047c.484 0 .875.242 1.348.633.976.804 1.16 2.148.453 3.28-.602.966-1.153 1.376-1.836 1.376Zm0 0" style="stroke:none;fill-rule:nonzero;fill:#e46b36;fill-opacity:1"/><path d="M17.09 44.152c.226 0 .433.141.648.403-.402.675-.66 1.351-.215 2.105.25-.945.223-2.105 1.551-2.117.375 0 .75.512 1.012.7-.563.421-1.168.632-1.29 1.007-.39 1.21 1.032.836 1.423 1.414-.266.457-.574.582-.903.582-.386 0-.808-.176-1.226-.2.305.34.797.454.992.759.227.351.188.87.238 1.14l-1.46.903.136.207c.484-.207.828-.317 1.133-.317.398 0 .73.184 1.21.582.884.727 1.052 1.965.403 2.985-.539.863-1.031 1.265-1.648 1.265-.324 0-.688-.113-1.11-.328-4.144-2.097-4.894-7.554-1.492-10.785.219-.207.418-.309.602-.309m0-.445c-.305 0-.602.14-.907.43-1.742 1.652-2.546 3.933-2.214 6.25.332 2.281 1.718 4.199 3.812 5.262.504.253.918.37 1.309.37.972 0 1.593-.785 2.023-1.472.758-1.203.551-2.707-.5-3.57-.383-.317-.719-.54-1.094-.637l.028-.016a.437.437 0 0 0 .203-.453c-.008-.05-.012-.133-.02-.219a2.427 2.427 0 0 0-.21-.968c.453-.063.804-.32 1.081-.793a.447.447 0 0 0-.02-.477c-.233-.347-.632-.46-.956-.555-.14-.042-.41-.12-.442-.183 0 0-.035-.07.036-.29.027-.085.343-.273.53-.386.184-.113.392-.242.602-.394a.46.46 0 0 0 .176-.36.46.46 0 0 0-.176-.36 2.41 2.41 0 0 1-.21-.187c-.274-.265-.622-.593-1.063-.593h-.008a1.838 1.838 0 0 0-.949.23.323.323 0 0 0-.043-.059c-.312-.378-.637-.562-.984-.562Zm0 0" style="stroke:none;fill-rule:nonzero;fill:#1d1d1b;fill-opacity:1"/><path d="M19.105 56.488a.054.054 0 0 1-.035 0c-2.675-.445-5.199-3.082-5.52-5.758-.35-2.957 1.262-6.656 3.255-7.472a.192.192 0 0 1 .082-.016c.09 0 .168.051.203.133.035.082.02.18-.043.242-2.184 2.336-3.137 4.563-2.84 6.613.316 2.145 2 4.11 5.004 5.84.086.051.129.153.105.25a.229.229 0 0 1-.214.168Zm0 0" style="stroke:none;fill-rule:nonzero;fill:#fbe7c2;fill-opacity:1"/><path d="M16.887 43.465c-4.551 4.87-3.856 9.297 2.218 12.8-2.64-.44-5.035-3.035-5.335-5.566-.336-2.824 1.234-6.469 3.117-7.234m0-.445a.454.454 0 0 0-.164.03c-2.075.848-3.75 4.657-3.391 7.704.16 1.328.836 2.687 1.91 3.82 1.07 1.133 2.43 1.903 3.785 2.13.028.003.051.007.075.007a.44.44 0 0 0 .433-.332.45.45 0 0 0-.215-.504c-2.941-1.7-4.59-3.61-4.894-5.68-.293-1.98.644-4.144 2.777-6.43a.443.443 0 0 0-.32-.75Zm0 0" style="stroke:none;fill-rule:nonzero;fill:#1d1d1b;fill-opacity:1"/><path d="m49.52 28.367-8.368-1.851.403-1.844 8.363 1.851.293-1.335 2.406 2.902-3.39 1.617Zm0 0" style="stroke:none;fill-rule:nonzero;fill:#5e5e70;fill-opacity:1"/><path d="m41.723 24.938 8.363 1.851.242-1.11 1.934 2.333-2.723 1.297.238-1.11-8.367-1.855.305-1.407m-.336-.53-.094.433-.305 1.41-.097.434.433.097 7.93 1.758-.148.676-.184.89.816-.394 2.723-1.297.516-.246-.367-.445-1.934-2.332-.574-.696-.196.887-.148.68-7.93-1.758-.43-.098Zm0 0" style="stroke:none;fill-rule:nonzero;fill:#1d1d1b;fill-opacity:1"/><path d="m29.258 31.633 1.453-3.485.668 1.192 7.457-4.254.918 1.64-7.453 4.258.668 1.192Zm0 0" style="stroke:none;fill-rule:nonzero;fill:#5e5e70;fill-opacity:1"/><path d="m38.75 25.387.703 1.258-7.457 4.253.559.993-2.985-.434 1.168-2.805.555.993 7.457-4.254m.168-.61-.383.219-7.07 4.031-.34-.597-.441-.79-.352.836-1.168 2.805-.219.531.567.082 2.98.434.89.129-.44-.79-.34-.608 7.066-4.032.387-.218-.22-.391-.702-1.254-.219-.387Zm0 0" style="stroke:none;fill-rule:nonzero;fill:#1d1d1b;fill-opacity:1"/><path d="M40.242 26.613c-1.875 0-4.023-.586-4.215-1.531-.07-.344.094-.773.473-1.246.883-1.09 2.742-2.219 4.336-2.219a2.67 2.67 0 0 1 1.496.418c1.012.664 1.777 2.313 1.207 3.356-.422.777-1.621 1.222-3.297 1.222Zm0 0" style="stroke:none;fill-rule:nonzero;fill:#fbe7c2;fill-opacity:1"/><path d="M40.836 21.84c.488-.012.965.125 1.379.387.96.632 1.625 2.148 1.133 3.062-.43.785-1.73 1.106-3.106 1.106-1.851 0-3.836-.579-4-1.356-.203-1 2.422-3.195 4.594-3.195m0-.446c-1.656 0-3.594 1.168-4.504 2.301-.43.535-.605 1.016-.52 1.434.258 1.242 2.852 1.707 4.43 1.707 1.031 0 2.86-.172 3.492-1.336.633-1.16-.168-2.918-1.28-3.649a2.89 2.89 0 0 0-1.618-.464Zm0 0" style="stroke:none;fill-rule:nonzero;fill:#1d1d1b;fill-opacity:1"/><path d="M40.836 21.84c.488-.012.965.125 1.379.387.96.632 1.625 2.148 1.133 3.062-.43.785-1.73 1.106-3.106 1.106-1.851 0-3.836-.579-4-1.356-.203-1 2.422-3.195 4.594-3.195" style="stroke:none;fill-rule:nonzero;fill:#e46b36;fill-opacity:1"/><path d="M39.875 23.14c-.07-.355 1.082-1.222 1.715-.804.277.18.469.617.328.879-.29.531-1.961.316-2.043-.074Zm0 0" style="stroke:none;fill-rule:nonzero;fill:#fbe7c2;fill-opacity:1"/><path d="M39.05 45.648c-12.417 0-22.519-10.187-22.519-22.71 0-12.524 10.102-22.715 22.52-22.715S61.566 10.41 61.566 22.938c0 12.527-10.097 22.71-22.515 22.71Zm0-40.636c-9.769 0-17.714 8.015-17.714 17.867 0 9.851 7.945 17.867 17.715 17.867 9.765 0 17.715-8.012 17.715-17.867 0-9.852-7.946-17.867-17.715-17.867Zm0 0" style="stroke:none;fill-rule:nonzero;fill:#5e5e70;fill-opacity:1"/><path d="M39.05.445c12.317 0 22.302 10.07 22.302 22.492S51.367 45.427 39.05 45.427c-12.317 0-22.301-10.067-22.301-22.489 0-12.421 9.984-22.492 22.3-22.492m0 40.524c9.907 0 17.938-8.098 17.938-18.09 0-9.992-8.031-18.09-17.937-18.09s-17.938 8.098-17.938 18.09c0 9.992 8.032 18.09 17.938 18.09M39.05 0C27.406.016 17.668 8.922 16.516 20.61c-1.149 11.687 6.664 22.35 18.078 24.675 11.41 2.324 22.715-4.45 26.152-15.668C64.18 18.395 58.63 6.375 47.902 1.805A22.478 22.478 0 0 0 39.051 0Zm0 40.523c-9.649 0-17.496-7.914-17.496-17.644 0-9.727 7.847-17.645 17.496-17.645 9.648 0 17.496 7.918 17.496 17.645 0 9.73-7.848 17.644-17.496 17.644Zm0 0" style="stroke:none;fill-rule:nonzero;fill:#1d1d1b;fill-opacity:1"/></svg>